<?xml version="1.0" encoding="utf-8"?>
<!-- Generator: Adobe Illustrator 23.0.2, SVG Export Plug-In . SVG Version: 6.00 Build 0)  -->
<svg version="1.1" id="Layer_1" xmlns="http://www.w3.org/2000/svg" xmlns:xlink="http://www.w3.org/1999/xlink" x="0px" y="0px"
	 viewBox="0 0 1024 512" style="enable-background:new 0 0 1024 512;" xml:space="preserve">
<style type="text/css">
	.st0{fill:#01B3B3;}
</style>
<path class="st0" d="M729.6,460.8H294.4c-21.2,0-38.4-17.2-38.4-38.4V89.6c0-21.2,17.2-38.4,38.4-38.4h435.2
	c21.2,0,38.4,17.2,38.4,38.4v332.8C768,443.6,750.8,460.8,729.6,460.8z M294.4,76.8c-7.1,0-12.8,5.7-12.8,12.8v332.8
	c0,7.1,5.7,12.8,12.8,12.8h435.2c7.1,0,12.8-5.7,12.8-12.8V89.6c0-7.1-5.7-12.8-12.8-12.8C729.6,76.8,294.4,76.8,294.4,76.8z
	 M499.2,153.6H345.6c-7.1,0-12.8-5.7-12.8-12.8s5.7-12.8,12.8-12.8h153.6c7.1,0,12.8,5.7,12.8,12.8S506.3,153.6,499.2,153.6z
	 M499.2,230.4H345.6c-7.1,0-12.8-5.7-12.8-12.8s5.7-12.8,12.8-12.8h153.6c7.1,0,12.8,5.7,12.8,12.8S506.3,230.4,499.2,230.4z
	 M499.2,281.6H345.6c-7.1,0-12.8-5.7-12.8-12.8s5.7-12.8,12.8-12.8h153.6c7.1,0,12.8,5.7,12.8,12.8S506.3,281.6,499.2,281.6z
	 M499.2,332.8H345.6c-7.1,0-12.8-5.7-12.8-12.8s5.7-12.8,12.8-12.8h153.6c7.1,0,12.8,5.7,12.8,12.8S506.3,332.8,499.2,332.8z
	 M473.6,384h-128c-7.1,0-12.8-5.7-12.8-12.8s5.7-12.8,12.8-12.8h128c7.1,0,12.8,5.7,12.8,12.8S480.7,384,473.6,384z M715.3,167.5
	l-20.8-15.1l-8-24.5h-25.7L640,112.8l-20.8,15.1h-25.7l-8,24.5l-20.8,15.1l8,24.5l-8,24.5l20.8,15.1l3.4,10.4
	c-0.1,0.4-0.1,0.8-0.1,1.2v128c0,5.2,3.1,9.9,7.9,11.8c4.8,2,10.3,0.9,14-2.8l29.3-29.3l29.3,29.3c2.5,2.5,5.7,3.8,9.1,3.7
	c1.6,0,3.3-0.3,4.9-1c4.8-2,7.9-6.7,7.9-11.8v-128c0-0.4,0-0.8-0.1-1.2l3.4-10.4l20.8-15.1l-8-24.5L715.3,167.5L715.3,167.5z
	 M594.8,177.3l12.5-9.1l4.8-14.7h15.5l12.5-9.1l12.5,9.1H668l4.8,14.7l12.5,9.1l-4.8,14.7l4.8,14.7l-12.5,9.1l-4.8,14.7h-15.5
	l-12.5,9.1l-12.5-9.1H612l-4.8-14.7l-12.5-9.1l4.8-14.7L594.8,177.3z M649.1,323.7c-5-5-13.1-5-18.1,0l-16.5,16.5v-84.2h4.8
	l20.8,15.1l20.8-15.1h4.8v84.2L649.1,323.7L649.1,323.7z"/>
</svg>
