<?xml version="1.0" encoding="utf-8"?>
<!-- Generator: Adobe Illustrator 23.0.2, SVG Export Plug-In . SVG Version: 6.00 Build 0)  -->
<svg version="1.1" id="Layer_1" xmlns="http://www.w3.org/2000/svg" xmlns:xlink="http://www.w3.org/1999/xlink" x="0px" y="0px"
	 viewBox="0 0 464 156" style="enable-background:new 0 0 464 156;" xml:space="preserve">
<style type="text/css">
	.st0{display:none;}
	.st1{display:inline;fill:#E85C32;}
	.st2{display:inline;fill:#F79920;}
	.st3{display:inline;fill:#E95E35;}
	.st4{display:inline;fill:#EA6037;}
	.st5{display:inline;fill:#E95F36;}
	.st6{display:inline;fill:#474847;}
	.st7{display:inline;fill:#484948;}
	.st8{display:inline;fill:#494A49;}
	.st9{display:inline;fill:#4D4E4D;}
	.st10{fill:#00B3B2;}
	.st11{fill:#0B64F4;}
</style>
<g class="st0">
	<path class="st1" d="M103.8,146.8c-31.2,0-62.4,0-93.6,0c-4,0-4.1,0-4.1-4.1c0-2.1,0.1-4.2,0-6.3c-0.2-2.4,0.7-3.5,3.2-3.3
		c3.3,0.2,6.5-0.1,9.8,0.1c2,0.1,2.8-0.5,3.2-2.6c2.5-15.2,8.6-28.8,18.1-40.8c13.9-17.6,31.7-29.1,54.2-32.4
		c13-2,25.9-0.7,38.3,3.7c1.2,0.4,1.9,0.9,2.3,2.3c4.6,18.2,17.8,29.3,36.6,30.5c1.8,0.1,2.7,0.8,3.7,2.2c7,10.6,11.8,22,13.5,34.6
		c0.3,2,1.1,2.6,3,2.4c2.3-0.2,4.7,0,7.1,0c1.7,0,2.6,0.6,2.5,2.4c-0.1,3-0.1,6,0,9c0,1.8-0.9,2.4-2.5,2.4c-3.3,0-6.5,0-9.8,0
		C160.8,146.8,132.3,146.8,103.8,146.8z M108.1,72.4c0.7,0.9,1.6,1,2.4,1.3c22,10.1,38,25.9,46.7,48.7c0.9,2.4,0.5,6,2.6,7.1
		s5.3,0.2,8,0.4c2,0.1,2.2-0.5,1.7-2.3c-2.5-8-5.9-15.6-10.5-22.6c-9.8-15-22.4-26.3-40-31.4C115.5,72.7,111.9,71.7,108.1,72.4z"/>
	<path class="st2" d="M216.8,47.3c0,21.1-17,38.1-38.1,38c-21,0-38.1-17.2-38-38.2c0.1-20.8,17.2-37.9,38-37.9
		C199.8,9.2,216.8,26.2,216.8,47.3z M161.5,70.8c5-2.6,9.3-4.6,13.4-7.1c2.9-1.8,5.1-1.6,7.9,0.1c4.2,2.5,8.5,4.6,13.3,7.1
		c-0.9-5.3-1.5-10-2.6-14.7c-0.7-3.2-0.1-5.5,2.4-7.8c3.6-3.2,6.7-7,10.1-10.6c-4.9-0.7-9.8-1.5-14.7-2.1c-2.8-0.3-4.5-1.3-5.7-4
		c-2-4.6-4.4-9-6.9-14.1c-2.3,4.7-4.7,8.7-6.3,13c-1.4,3.7-3.7,5-7.4,5.3c-4.6,0.3-9.1,1.3-13.4,1.9c3.7,3.9,7.2,7.8,10.9,11.5
		c1.7,1.7,2.1,3.2,1.7,5.5C163.3,59.8,162.5,64.9,161.5,70.8z"/>
	<path class="st3" d="M396.7,120c0-7.8,0-15.6,0-23.4c0-1.4,0-2.4,1.9-2.4c12.4,0.2,24.8-0.4,37.2,0.3c8.3,0.5,12.2,3.8,12.9,12.1
		c0.9,9.6,1,19.2-0.2,28.8c-0.7,6.2-4,9.2-10.1,10.4c-2,0.4-4,0.5-5.9,0.5c-11.1,0-22.3,0-33.4,0c-1.9,0-2.5-0.5-2.4-2.4
		C396.8,136,396.7,128,396.7,120z M420.5,102.1L420.5,102.1c-4.6,0-9.2,0-13.9,0c-1.1,0-2.1-0.1-2.1,1.6c0.1,11.2,0,22.3,0,33.5
		c0,1.2,0.5,1.6,1.6,1.6c9.3-0.1,18.7,0.1,28-0.1c4.5-0.1,6.6-2.2,7-6.7c0.7-7.5,0.6-15,0.1-22.5c-0.3-5.2-2.4-7-7.7-7.1
		C429.2,102,424.8,102.1,420.5,102.1z"/>
	<path class="st4" d="M304.8,146.2c-4.9-0.1-9.8,0.5-14.6-0.4c-6-1.2-9.5-4.4-10.1-10.5c-1-9.9-1-19.9,0-29.8
		c0.7-6.6,4.4-10.2,11.2-10.8c9.1-0.8,18.3-0.8,27.4,0c6.9,0.6,10.6,4.2,11.3,11c1.1,9.4,1,18.8,0.1,28.2
		c-0.7,8.3-4.7,11.8-13.1,12.3C312.9,146.4,308.9,146.2,304.8,146.2z M287.5,120.2L287.5,120.2c0,4-0.1,8,0,12
		c0.2,4.3,1.7,6.1,5.9,6.3c7.7,0.5,15.4,0.4,23.1,0c4-0.2,5.7-2.1,6-6.1c0.6-8,0.6-15.9,0-23.9c-0.3-4.3-2.3-6.2-6.7-6.3
		c-7.3-0.2-14.7-0.2-22,0c-4.2,0.1-6.1,2-6.3,6.3C287.3,112.4,287.5,116.3,287.5,120.2z"/>
	<path class="st5" d="M338.2,120.2c-0.2-5-0.6-10,0.3-14.9c1.2-6.7,4.5-10,11.2-10.6c9.1-0.8,18.3-0.8,27.4,0
		c6.7,0.6,10.1,3.9,11.2,10.5c1,6,0.4,12.1,0.5,18.2c0.1,4.3,0.3,8.5-0.6,12.7c-1.2,5.6-4.1,8.5-9.7,9.6c-4.9,1-9.8,0.5-14.7,0.5
		c-4.7,0-9.4,0.4-14.1-0.3c-7.6-1.2-11-4.7-11.5-12.4C338,129.1,338.2,124.7,338.2,120.2z M345.8,120.4L345.8,120.4
		c0,3.9-0.1,7.8,0.1,11.7c0.2,4.4,1.8,6.2,6.2,6.4c7.5,0.3,15,0.3,22.5,0c4.2-0.1,6-1.9,6.3-6.1c0.6-8,0.6-15.9,0-23.9
		c-0.3-4.5-2.4-6.3-6.9-6.4c-7.1-0.1-14.1-0.2-21.2,0c-4.8,0.1-6.7,2-6.9,6.9C345.7,112.8,345.8,116.6,345.8,120.4z"/>
	<path class="st6" d="M364.2,47.5c-3,4.5-6,9-9.1,13.5c-3,4.5-6,9.1-9.1,13.5c-2.8,4-6.7,4-9.5,0c-5.7-8.3-11.3-16.7-16.9-25
		c-0.5-0.7-0.8-1.6-1.7-2.1c-0.7,0.7-0.3,1.6-0.3,2.3c0,8.3-0.1,16.5,0,24.8c0,2-0.4,2.7-2.5,2.6c-4.8-0.1-4.8,0-4.8-4.9
		c0-11.2,0-22.3,0-33.5c0-2.2,0-4.5,2.6-5.4c2.8-0.9,4.6,0.5,6.2,2.7c6.9,10,13.9,19.9,20.7,29.8c1.3,1.9,1.8,1.8,3.1,0
		c6.6-9.7,13.2-19.3,19.9-28.9c0.5-0.7,1-1.5,1.6-2.2c1.3-1.4,2.9-1.9,4.7-1.3c1.9,0.6,2.7,2,2.8,3.9c0,0.5,0,0.9,0,1.4
		c0,12,0,23.9,0,35.9c0,2-0.4,2.7-2.5,2.6c-4.8-0.1-4.8,0-4.8-4.7c0-8.2,0-16.5,0-24.7C364.6,47.7,364.4,47.6,364.2,47.5z"/>
	<path class="st5" d="M226.6,125.4c0.3-5.6-0.5-12.4,0.4-19.2c1-7.6,4.6-11.2,12.2-11.7c11-0.8,22.1-0.2,33.2-0.3
		c1.3,0,1.7,0.4,1.8,1.7c0.4,6.1,0.5,6.1-5.6,6.1c-8.3,0-16.7,0-25,0c-6.3,0-8.7,2.3-9.1,8.6c-0.5,7.3-0.5,7.3,6.7,7.3
		c7.1,0,14.1,0,21.2,0c1.6,0,2.2,0.4,2.2,2.1c0.1,5.6,0.1,5.6-5.5,5.6c-7.1,0-14.1,0-21.2,0c-3.4,0-3.4,0-3.4,3.6c0,5-0.1,10,0,15
		c0,1.6-0.4,2.2-2.1,2.2c-5.8,0.1-5.8,0.1-5.8-5.6C226.6,136.1,226.6,131.4,226.6,125.4z"/>
	<path class="st7" d="M448.5,76.9c-0.5,0.1-0.5,0.2-0.6,0.2c-7.2,0.3-7.6,0.5-10.7-6.1c-2.3-4.8-5.3-6.7-10.6-6.2
		c-5.7,0.6-11.4,0.2-17.1,0.1c-1.8,0-2.8,0.4-3.6,2.1c-1.4,2.8-3,5.4-4.5,8.1c-0.7,1.5-1.6,2.2-3.4,2c-2-0.2-3.9,0-5.9,0
		c-0.3-1.1,0.5-1.7,0.9-2.4c7.5-12.6,15.1-25.2,22.6-37.8c3.1-5.1,6.7-5.1,9.8,0.1c7.3,12.5,14.7,25,22,37.6
		C447.7,75.3,448,76,448.5,76.9z M420.1,42.7c-2.8,4.7-5.4,9.1-8.1,13.5c-0.6,1.1-0.3,1.4,0.9,1.4c5.3,0,10.6,0,16.4,0
		C426,52.5,423.1,47.7,420.1,42.7z"/>
	<path class="st6" d="M257.6,50.4c0-5.1,0-10.2,0-15.2c0-1.5,0.4-2,2-2c5.4-0.1,5.4-0.2,5.4,5.1c0,8.2,0,16.3,0,24.5
		c0,3.9,1.3,5.8,5.2,6.3c6.8,0.9,13.6,0.9,20.3,0c4-0.5,5.3-2.3,5.3-6.5c0-8.9,0.1-17.8,0-26.6c0-2.1,0.4-2.8,2.7-2.8
		c4.6,0.2,4.6,0,4.6,4.5c0,8.4,0,16.9,0,25.3c0,8.5-2.9,12.2-11.4,13.3c-7.9,1.1-15.9,1.1-23.8-0.1c-7.2-1.1-10.1-5-10.2-12.2
		C257.6,59.4,257.6,54.9,257.6,50.4z"/>
	<path class="st8" d="M251,47.1c-0.5,6.8,0.1,12.4-1,17.9c-1.4,7.3-5.6,11.8-12.9,13.3c-2.9,0.6-5.9,1.1-8.8,1.6
		c-1.3,0.2-1.7-0.2-1.8-1.5c-0.4-6.2-0.4-6.2,5.8-7.1c0.8-0.1,1.6-0.3,2.4-0.5c6.2-1.4,8.6-4.1,8.8-10.6c0.2-8.1,0.3-16.1,0.2-24.2
		c0-2.3,0.6-2.9,2.8-2.8c4.5,0.2,4.5,0,4.5,4.7C251,41.3,251,44.8,251,47.1z"/>
	<path class="st9" d="M379,54.8c0-6.4,0.1-12.9,0-19.3c0-1.8,0.4-2.5,2.4-2.5c5.1,0.1,5.1,0,5.1,4.9c0,12,0,24.1,0,36.1
		c0,2.1-0.5,2.8-2.7,2.7c-4.8-0.2-4.8,0-4.8-4.9C379,66.2,379,60.5,379,54.8z"/>
	<path class="st3" d="M115,41.8c0,5.2-4.1,9.2-9.3,9.2c-5.2,0-9.3-4.1-9.3-9.3c0-5,4.1-9.1,9.2-9.1C110.8,32.6,115,36.7,115,41.8z"
		/>
</g>
<path class="st10" d="M47.9,103.5H35.2L14.6,67.7h-0.3c0.4,6.3,0.6,10.8,0.6,13.5v22.3H6V56.2h12.6l20.5,35.4h0.2
	c-0.3-6.1-0.5-10.5-0.5-13V56.2h9V103.5z"/>
<path class="st10" d="M82,103.5l-1.9-4.9h-0.3c-1.7,2.1-3.4,3.5-5.1,4.4c-1.8,0.8-4,1.2-6.9,1.2c-3.5,0-6.2-1-8.2-3
	c-2-2-3-4.8-3-8.5c0-3.8,1.3-6.7,4-8.5c2.7-1.8,6.7-2.8,12.1-3l6.3-0.2v-1.6c0-3.7-1.9-5.5-5.6-5.5c-2.9,0-6.3,0.9-10.2,2.6L60,69.9
	c4.2-2.2,8.8-3.3,13.8-3.3c4.9,0,8.6,1.1,11.2,3.2c2.6,2.1,3.9,5.3,3.9,9.6v24.1H82z M79.1,86.8l-3.8,0.1c-2.9,0.1-5,0.6-6.4,1.6
	c-1.4,0.9-2.1,2.4-2.1,4.3c0,2.8,1.6,4.2,4.8,4.2c2.3,0,4.1-0.7,5.5-2c1.4-1.3,2.1-3.1,2.1-5.2V86.8z"/>
<path class="st10" d="M98.6,58c0-3.2,1.8-4.8,5.4-4.8c3.6,0,5.4,1.6,5.4,4.8c0,1.5-0.4,2.7-1.3,3.6c-0.9,0.9-2.2,1.3-4,1.3
	C100.4,62.9,98.6,61.2,98.6,58z M108.9,103.5h-9.9V67.3h9.9V103.5z"/>
<path class="st10" d="M139.5,66.7c1.3,0,2.4,0.1,3.3,0.3l-0.7,9.3c-0.8-0.2-1.8-0.3-2.9-0.3c-3.1,0-5.6,0.8-7.4,2.4
	c-1.8,1.6-2.6,3.9-2.6,6.8v18.4h-9.9V67.3h7.5l1.5,6.1h0.5c1.1-2,2.6-3.7,4.5-4.9C135.1,67.3,137.2,66.7,139.5,66.7z"/>
<path class="st10" d="M182.2,85.4c0,5.9-1.6,10.5-4.7,13.8c-3.1,3.3-7.4,5-13,5c-3.5,0-6.5-0.8-9.2-2.3c-2.7-1.5-4.7-3.7-6.1-6.5
	c-1.4-2.8-2.1-6.2-2.1-10c0-5.9,1.5-10.5,4.6-13.8s7.4-4.9,13-4.9c3.5,0,6.5,0.8,9.2,2.3c2.7,1.5,4.7,3.7,6.1,6.5
	C181.5,78.3,182.2,81.6,182.2,85.4z M157.2,85.4c0,3.6,0.6,6.3,1.8,8.1c1.2,1.8,3.1,2.8,5.7,2.8c2.6,0,4.5-0.9,5.7-2.7
	c1.2-1.8,1.7-4.5,1.7-8.1c0-3.6-0.6-6.3-1.7-8.1c-1.2-1.8-3.1-2.7-5.7-2.7c-2.6,0-4.5,0.9-5.7,2.7C157.8,79.1,157.2,81.8,157.2,85.4
	z"/>
<path class="st10" d="M210.5,66.7c4.3,0,7.6,1.7,10,5c2.4,3.3,3.6,7.9,3.6,13.7c0,6-1.2,10.6-3.7,13.9s-5.9,4.9-10.2,4.9
	c-4.2,0-7.6-1.5-10-4.6h-0.7l-1.6,4h-7.5V53.2h9.9v11.7c0,1.5-0.1,3.9-0.4,7.1h0.4C202.5,68.5,206,66.7,210.5,66.7z M207.3,74.6
	c-2.4,0-4.2,0.8-5.3,2.2c-1.1,1.5-1.7,4-1.7,7.4v1.1c0,3.9,0.6,6.7,1.7,8.3c1.2,1.7,3,2.5,5.5,2.5c2,0,3.6-0.9,4.8-2.8
	s1.8-4.6,1.8-8.1c0-3.6-0.6-6.2-1.8-8C211.1,75.5,209.4,74.6,207.3,74.6z"/>
<path class="st10" d="M231.9,58c0-3.2,1.8-4.8,5.4-4.8c3.6,0,5.4,1.6,5.4,4.8c0,1.5-0.4,2.7-1.3,3.6c-0.9,0.9-2.2,1.3-4,1.3
	C233.7,62.9,231.9,61.2,231.9,58z M242.2,103.5h-9.9V67.3h9.9V103.5z"/>
<path class="st11" d="M271,103.5V56.2h5.5v42.3h20.9v5H271z"/>
<path class="st11" d="M304.2,58.5c0-1.2,0.3-2.1,0.9-2.7c0.6-0.6,1.4-0.9,2.3-0.9c0.9,0,1.6,0.3,2.2,0.9c0.6,0.6,0.9,1.5,0.9,2.7
	c0,1.2-0.3,2.1-0.9,2.7c-0.6,0.6-1.4,0.9-2.2,0.9c-0.9,0-1.7-0.3-2.3-0.9C304.5,60.6,304.2,59.7,304.2,58.5z M310,103.5h-5.4V68.1
	h5.4V103.5z"/>
<path class="st11" d="M334,104.2c-4.6,0-8.1-1.6-10.7-4.8c-2.6-3.2-3.8-7.7-3.8-13.5c0-5.8,1.3-10.3,3.9-13.6
	c2.6-3.3,6.2-4.9,10.8-4.9c4.9,0,8.6,1.8,11.2,5.5h0.3l0.8-4.9h4.2v51.4h-5.4v-15.2c0-2.2,0.1-4,0.4-5.5h-0.4
	C342.7,102.4,338.9,104.2,334,104.2z M334.8,99.7c3.6,0,6.2-1,7.8-2.9c1.6-1.9,2.5-5.2,2.6-9.7v-1.2c0-5-0.8-8.5-2.5-10.7
	c-1.7-2.2-4.3-3.3-8-3.3c-3.1,0-5.6,1.2-7.2,3.7c-1.7,2.4-2.5,5.9-2.5,10.4c0,4.5,0.8,7.9,2.5,10.2
	C329.1,98.5,331.5,99.7,334.8,99.7z"/>
<path class="st11" d="M367,68.1v23c0,2.9,0.7,5,2,6.5s3.4,2.1,6.2,2.1c3.7,0,6.4-1,8.1-3c1.7-2,2.6-5.3,2.6-9.9V68.1h5.4v35.5h-4.4
	l-0.8-4.8h-0.3c-1.1,1.7-2.6,3.1-4.6,4s-4.2,1.4-6.7,1.4c-4.3,0-7.5-1-9.7-3.1s-3.2-5.3-3.2-9.8V68.1H367z"/>
<path class="st11" d="M433.2,85.8c0,5.8-1.5,10.3-4.4,13.5c-2.9,3.2-6.9,4.9-12.1,4.9c-3.2,0-6-0.7-8.4-2.2
	c-2.5-1.5-4.4-3.6-5.7-6.4c-1.3-2.8-2-6-2-9.8c0-5.8,1.4-10.3,4.3-13.5c2.9-3.2,6.9-4.8,12-4.8c5,0,8.9,1.6,11.8,4.9
	C431.8,75.7,433.2,80.1,433.2,85.8z M406.2,85.8c0,4.5,0.9,8,2.7,10.4s4.5,3.6,8,3.6c3.5,0,6.2-1.2,8-3.5s2.7-5.8,2.7-10.4
	c0-4.5-0.9-7.9-2.7-10.3c-1.8-2.3-4.5-3.5-8.1-3.5c-3.5,0-6.2,1.2-8,3.5C407.1,77.7,406.2,81.2,406.2,85.8z"/>
<path class="st11" d="M458.8,67.4c1.6,0,3,0.1,4.2,0.4l-0.7,5c-1.5-0.3-2.8-0.5-3.9-0.5c-2.9,0-5.3,1.2-7.4,3.5S448,81,448,84.5v19
	h-5.4V68.1h4.4l0.6,6.6h0.3c1.3-2.3,2.9-4.1,4.8-5.3C454.6,68,456.6,67.4,458.8,67.4z"/>
</svg>
